<mxfile host="app.diagrams.net" modified="2020-11-02T14:54:42.776Z" agent="5.0 (Macintosh)" etag="qcVXyswy5E-lFRGM5HLy" version="13.8.8" type="github">
  <diagram id="78aQR8RQnFcetJqp-GHQ" name="Page-1">
    <mxGraphModel dx="946" dy="562" grid="1" gridSize="10" guides="1" tooltips="1" connect="1" arrows="1" fold="1" page="1" pageScale="1" pageWidth="827" pageHeight="1169" math="0" shadow="0">
      <root>
        <mxCell id="0" />
        <mxCell id="1" parent="0" />
        <mxCell id="h-x4_XwBHl1-xy10uT6D-13" value="Flujo" style="swimlane;startSize=23;" vertex="1" parent="1">
          <mxGeometry x="100" y="40" width="660" height="750" as="geometry">
            <mxRectangle x="100" y="40" width="60" height="23" as="alternateBounds" />
          </mxGeometry>
        </mxCell>
        <mxCell id="h-x4_XwBHl1-xy10uT6D-65" value="Frontend" style="html=1;shape=mxgraph.sysml.package;align=left;spacingLeft=5;verticalAlign=top;spacingTop=-3;labelX=82;html=1;overflow=fill;" vertex="1" parent="h-x4_XwBHl1-xy10uT6D-13">
          <mxGeometry x="60" y="170" width="520" height="110" as="geometry" />
        </mxCell>
        <mxCell id="h-x4_XwBHl1-xy10uT6D-63" value="Backend" style="html=1;shape=mxgraph.sysml.package;align=left;spacingLeft=5;verticalAlign=top;spacingTop=-3;labelX=82;html=1;overflow=fill;" vertex="1" parent="h-x4_XwBHl1-xy10uT6D-13">
          <mxGeometry x="60" y="370" width="520" height="110" as="geometry" />
        </mxCell>
        <mxCell id="h-x4_XwBHl1-xy10uT6D-62" value="BD" style="html=1;shape=mxgraph.sysml.package;align=left;spacingLeft=5;verticalAlign=top;spacingTop=-3;labelX=51;html=1;overflow=fill;" vertex="1" parent="h-x4_XwBHl1-xy10uT6D-13">
          <mxGeometry x="60" y="520" width="520" height="90" as="geometry" />
        </mxCell>
        <mxCell id="h-x4_XwBHl1-xy10uT6D-16" value="" style="shape=mxgraph.cisco.computers_and_peripherals.laptop;html=1;pointerEvents=1;dashed=0;fillColor=#036897;strokeColor=#ffffff;strokeWidth=2;verticalLabelPosition=bottom;verticalAlign=top;align=center;outlineConnect=0;" vertex="1" parent="h-x4_XwBHl1-xy10uT6D-13">
          <mxGeometry x="210" y="60" width="80" height="51" as="geometry" />
        </mxCell>
        <mxCell id="h-x4_XwBHl1-xy10uT6D-66" style="edgeStyle=orthogonalEdgeStyle;rounded=0;orthogonalLoop=1;jettySize=auto;html=1;entryX=0.192;entryY=1.013;entryDx=0;entryDy=0;entryPerimeter=0;" edge="1" parent="h-x4_XwBHl1-xy10uT6D-13" source="h-x4_XwBHl1-xy10uT6D-18" target="h-x4_XwBHl1-xy10uT6D-42">
          <mxGeometry relative="1" as="geometry">
            <Array as="points">
              <mxPoint x="337" y="580" />
            </Array>
          </mxGeometry>
        </mxCell>
        <mxCell id="h-x4_XwBHl1-xy10uT6D-67" value="Respuesta BD" style="edgeLabel;html=1;align=center;verticalAlign=middle;resizable=0;points=[];" vertex="1" connectable="0" parent="h-x4_XwBHl1-xy10uT6D-66">
          <mxGeometry x="-0.1492" y="1" relative="1" as="geometry">
            <mxPoint as="offset" />
          </mxGeometry>
        </mxCell>
        <mxCell id="h-x4_XwBHl1-xy10uT6D-18" value="&lt;div&gt;MongoDB&lt;/div&gt;&lt;div&gt;&lt;br&gt;&lt;/div&gt;" style="shape=cylinder;whiteSpace=wrap;html=1;boundedLbl=1;backgroundOutline=1;dashed=0;verticalAlign=top;strokeColor=#ffffff;strokeWidth=2;fillColor=#036897;" vertex="1" parent="h-x4_XwBHl1-xy10uT6D-13">
          <mxGeometry x="390" y="530" width="60" height="70" as="geometry" />
        </mxCell>
        <mxCell id="h-x4_XwBHl1-xy10uT6D-32" style="edgeStyle=orthogonalEdgeStyle;rounded=0;orthogonalLoop=1;jettySize=auto;html=1;" edge="1" parent="h-x4_XwBHl1-xy10uT6D-13" target="h-x4_XwBHl1-xy10uT6D-31">
          <mxGeometry relative="1" as="geometry">
            <mxPoint x="310" y="210" as="sourcePoint" />
            <Array as="points">
              <mxPoint x="250" y="210" />
              <mxPoint x="250" y="325" />
            </Array>
          </mxGeometry>
        </mxCell>
        <mxCell id="h-x4_XwBHl1-xy10uT6D-33" value="&lt;div&gt;http&lt;/div&gt;" style="edgeLabel;html=1;align=center;verticalAlign=middle;resizable=0;points=[];" vertex="1" connectable="0" parent="h-x4_XwBHl1-xy10uT6D-32">
          <mxGeometry x="-0.1613" y="-14" relative="1" as="geometry">
            <mxPoint x="16" y="14" as="offset" />
          </mxGeometry>
        </mxCell>
        <mxCell id="h-x4_XwBHl1-xy10uT6D-29" value="users" style="outlineConnect=0;gradientColor=none;fontColor=#545B64;strokeColor=none;fillColor=#879196;dashed=0;verticalLabelPosition=bottom;verticalAlign=top;align=center;html=1;fontSize=12;fontStyle=0;aspect=fixed;shape=mxgraph.aws4.illustration_users;pointerEvents=1" vertex="1" parent="h-x4_XwBHl1-xy10uT6D-13">
          <mxGeometry x="180" y="40" width="40" height="40" as="geometry" />
        </mxCell>
        <mxCell id="h-x4_XwBHl1-xy10uT6D-31" value="" style="shape=image;html=1;verticalAlign=top;verticalLabelPosition=bottom;labelBackgroundColor=#ffffff;imageAspect=0;aspect=fixed;image=https://cdn2.iconfinder.com/data/icons/competitive-strategy-and-corporate-training/512/196_Api_app_coding_developer_software_app_development-128.png" vertex="1" parent="h-x4_XwBHl1-xy10uT6D-13">
          <mxGeometry x="225" y="300" width="50" height="50" as="geometry" />
        </mxCell>
        <mxCell id="h-x4_XwBHl1-xy10uT6D-37" value="&lt;div&gt;Mongoose&lt;/div&gt;" style="edgeStyle=orthogonalEdgeStyle;rounded=0;orthogonalLoop=1;jettySize=auto;html=1;" edge="1" parent="h-x4_XwBHl1-xy10uT6D-13" source="h-x4_XwBHl1-xy10uT6D-42" target="h-x4_XwBHl1-xy10uT6D-18">
          <mxGeometry relative="1" as="geometry">
            <mxPoint x="310" y="517.5" as="sourcePoint" />
          </mxGeometry>
        </mxCell>
        <mxCell id="h-x4_XwBHl1-xy10uT6D-39" value="Frontend" style="html=1;whiteSpace=wrap;rounded=1;dropTarget=0;" vertex="1" parent="h-x4_XwBHl1-xy10uT6D-13">
          <mxGeometry x="190" y="180" width="120" height="80" as="geometry" />
        </mxCell>
        <mxCell id="h-x4_XwBHl1-xy10uT6D-40" value="" style="html=1;shape=mxgraph.bpmn.user_task;outlineConnect=0;" vertex="1" parent="h-x4_XwBHl1-xy10uT6D-39">
          <mxGeometry width="14" height="14" relative="1" as="geometry">
            <mxPoint x="7" y="7" as="offset" />
          </mxGeometry>
        </mxCell>
        <mxCell id="h-x4_XwBHl1-xy10uT6D-41" value="" style="html=1;shape=plus;outlineConnect=0;" vertex="1" parent="h-x4_XwBHl1-xy10uT6D-39">
          <mxGeometry x="0.5" y="1" width="14" height="14" relative="1" as="geometry">
            <mxPoint x="-7" y="-14" as="offset" />
          </mxGeometry>
        </mxCell>
        <mxCell id="h-x4_XwBHl1-xy10uT6D-42" value="&lt;div&gt;NodeJs-Express&lt;/div&gt;" style="html=1;whiteSpace=wrap;rounded=1;dropTarget=0;" vertex="1" parent="h-x4_XwBHl1-xy10uT6D-13">
          <mxGeometry x="314" y="380" width="120" height="80" as="geometry" />
        </mxCell>
        <mxCell id="h-x4_XwBHl1-xy10uT6D-43" value="" style="html=1;shape=plus;outlineConnect=0;" vertex="1" parent="h-x4_XwBHl1-xy10uT6D-42">
          <mxGeometry x="0.5" y="1" width="14" height="14" relative="1" as="geometry">
            <mxPoint x="-7" y="-14" as="offset" />
          </mxGeometry>
        </mxCell>
        <mxCell id="h-x4_XwBHl1-xy10uT6D-27" style="edgeStyle=orthogonalEdgeStyle;rounded=0;orthogonalLoop=1;jettySize=auto;html=1;entryX=0.5;entryY=0;entryDx=0;entryDy=0;" edge="1" parent="h-x4_XwBHl1-xy10uT6D-13" source="h-x4_XwBHl1-xy10uT6D-16" target="h-x4_XwBHl1-xy10uT6D-39">
          <mxGeometry relative="1" as="geometry">
            <mxPoint x="250" y="170" as="targetPoint" />
            <Array as="points" />
          </mxGeometry>
        </mxCell>
        <mxCell id="h-x4_XwBHl1-xy10uT6D-35" style="edgeStyle=orthogonalEdgeStyle;rounded=0;orthogonalLoop=1;jettySize=auto;html=1;" edge="1" parent="h-x4_XwBHl1-xy10uT6D-13" source="h-x4_XwBHl1-xy10uT6D-42" target="h-x4_XwBHl1-xy10uT6D-16">
          <mxGeometry relative="1" as="geometry">
            <mxPoint x="400" y="430" as="sourcePoint" />
            <Array as="points">
              <mxPoint x="610" y="410" />
              <mxPoint x="610" y="86" />
            </Array>
          </mxGeometry>
        </mxCell>
        <mxCell id="h-x4_XwBHl1-xy10uT6D-44" value="&lt;div&gt;Response Http&lt;/div&gt;" style="edgeLabel;html=1;align=center;verticalAlign=middle;resizable=0;points=[];" vertex="1" connectable="0" parent="h-x4_XwBHl1-xy10uT6D-35">
          <mxGeometry x="0.0487" y="1" relative="1" as="geometry">
            <mxPoint as="offset" />
          </mxGeometry>
        </mxCell>
        <mxCell id="h-x4_XwBHl1-xy10uT6D-69" style="edgeStyle=orthogonalEdgeStyle;rounded=0;orthogonalLoop=1;jettySize=auto;html=1;" edge="1" parent="1" source="h-x4_XwBHl1-xy10uT6D-31">
          <mxGeometry relative="1" as="geometry">
            <mxPoint x="490" y="410" as="targetPoint" />
          </mxGeometry>
        </mxCell>
      </root>
    </mxGraphModel>
  </diagram>
</mxfile>
